<svg width="13" height="12" viewBox="0 0 13 12" fill="none" xmlns="http://www.w3.org/2000/svg">
<path d="M12.828 6.51805C12.8353 6.50806 12.8415 6.49805 12.8488 6.48805C12.857 6.47694 12.8653 6.46583 12.8726 6.45361C12.8798 6.44139 12.886 6.42917 12.8933 6.41694C12.8995 6.40583 12.9057 6.39583 12.9109 6.38472C12.9171 6.3725 12.9223 6.35917 12.9285 6.34694C12.9337 6.33583 12.9389 6.32472 12.943 6.3125C12.9482 6.30028 12.9513 6.28694 12.9565 6.27472C12.9606 6.2625 12.9648 6.25028 12.9689 6.23694C12.972 6.22361 12.9751 6.21139 12.9782 6.19805C12.9814 6.18472 12.9845 6.1725 12.9865 6.15917C12.9896 6.14361 12.9907 6.12805 12.9928 6.1125C12.9938 6.10139 12.9959 6.09139 12.9969 6.08028C13.0021 6.02694 13.0021 5.9725 12.9969 5.91917C12.9959 5.90806 12.9938 5.89694 12.9928 5.88694C12.9907 5.87139 12.9886 5.85583 12.9865 5.84028C12.9845 5.82694 12.9803 5.81472 12.9782 5.80139C12.9751 5.78805 12.9731 5.77583 12.9689 5.7625C12.9658 5.75028 12.9606 5.73806 12.9565 5.72472C12.9523 5.7125 12.9482 5.69917 12.943 5.68694C12.9389 5.67583 12.9337 5.66472 12.9285 5.6525C12.9233 5.63917 12.9171 5.62694 12.9109 5.61472C12.9057 5.60361 12.8995 5.59361 12.8933 5.5825C12.886 5.57028 12.8798 5.55805 12.8726 5.54583C12.8653 5.53361 12.857 5.5225 12.8488 5.51139C12.8415 5.50139 12.8353 5.49139 12.828 5.48139C12.8125 5.46139 12.7959 5.44139 12.7793 5.42361L12.7783 5.4225L7.94462 0.239167C7.6473 -0.0797222 7.16559 -0.0797222 6.86828 0.239167C6.57096 0.558056 6.57096 1.07472 6.86828 1.39361L10.4019 5.18361H0.761415C0.340824 5.18361 0 5.54917 0 6.00028C0 6.45139 0.340824 6.81694 0.761415 6.81694H10.4019L6.86828 10.6069C6.57096 10.9258 6.57096 11.4425 6.86828 11.7614C7.01642 11.9203 7.21117 12.0003 7.40697 12.0003C7.60276 12.0003 7.79648 11.9203 7.94565 11.7614L12.7783 6.57805L12.7793 6.57694C12.7959 6.55694 12.8125 6.53805 12.828 6.51805Z" fill="#E73C3E"/>
</svg>
